<?xml version="1.0" encoding="UTF-8"?>
<svg xmlns="http://www.w3.org/2000/svg" xmlns:xlink="http://www.w3.org/1999/xlink" width="18pt" height="18pt" viewBox="0 0 18 18" version="1.1">
<g id="surface414">
<path style=" stroke:none;fill-rule:nonzero;fill:rgb(9.019608%,9.019608%,9.411765%);fill-opacity:1;" d="M 9 1.5 C 8.378906 1.5 7.875 2.003906 7.875 2.625 L 7.875 3.148438 C 5.941406 3.652344 4.5 5.414062 4.5 7.5 L 4.5 11.128906 L 3.960938 12.75 L 3 12.75 L 3 14.25 L 7.703125 14.25 C 7.570312 14.476562 7.5 14.738281 7.5 15 C 7.5 15.828125 8.171875 16.5 9 16.5 C 9.828125 16.5 10.5 15.828125 10.5 15 C 10.5 14.738281 10.429688 14.476562 10.296875 14.25 L 15 14.25 L 15 12.75 L 14.039062 12.75 L 13.5 11.128906 L 13.5 7.5 C 13.5 5.414062 12.058594 3.652344 10.125 3.148438 L 10.125 2.625 C 10.125 2.003906 9.621094 1.5 9 1.5 Z M 9 4.5 C 10.664062 4.5 12 5.835938 12 7.5 L 12 11.371094 L 12.457031 12.75 L 5.542969 12.75 L 6 11.371094 L 6 7.5 C 6 5.835938 7.335938 4.5 9 4.5 Z M 9 4.5 "/>
</g>
</svg>
