<?xml version="1.0" encoding="UTF-8"?>
<svg xmlns="http://www.w3.org/2000/svg" xmlns:xlink="http://www.w3.org/1999/xlink" width="18pt" height="18pt" viewBox="0 0 18 18" version="1.1">
<g id="surface9654">
<path style=" stroke:none;fill-rule:nonzero;fill:rgb(9.019608%,9.019608%,9.411765%);fill-opacity:1;" d="M 13.6875 2.25 L 4.3125 2.25 C 3.175781 2.25 2.25 3.175781 2.25 4.3125 L 2.25 13.6875 C 2.25 14.824219 3.175781 15.75 4.3125 15.75 L 13.6875 15.75 C 14.824219 15.75 15.75 14.824219 15.75 13.6875 L 15.75 4.3125 C 15.75 3.175781 14.824219 2.25 13.6875 2.25 Z M 14.460938 9.398438 L 12.210938 11.648438 C 12.101562 11.757812 11.957031 11.8125 11.8125 11.8125 C 11.667969 11.8125 11.523438 11.757812 11.414062 11.648438 C 11.195312 11.429688 11.195312 11.070312 11.414062 10.851562 L 12.703125 9.5625 L 5.8125 9.5625 C 5.503906 9.5625 5.25 9.3125 5.25 9 C 5.25 8.691406 5.503906 8.4375 5.8125 8.4375 L 12.703125 8.4375 L 11.414062 7.148438 C 11.195312 6.929688 11.195312 6.574219 11.414062 6.351562 C 11.632812 6.132812 11.992188 6.132812 12.210938 6.351562 L 14.460938 8.601562 C 14.679688 8.820312 14.679688 9.179688 14.460938 9.398438 Z M 14.460938 9.398438 "/>
</g>
</svg>
