<?xml version="1.0" encoding="UTF-8"?>
<svg xmlns="http://www.w3.org/2000/svg" xmlns:xlink="http://www.w3.org/1999/xlink" width="18pt" height="18pt" viewBox="0 0 18 18" version="1.1">
<g id="surface203">
<path style=" stroke:none;fill-rule:nonzero;fill:rgb(9.019608%,9.019608%,9.411765%);fill-opacity:1;" d="M 4.5 0.75 L 4.5 2.25 L 3.75 2.25 C 2.925781 2.25 2.25 2.925781 2.25 3.75 L 2.25 14.25 C 2.25 15.074219 2.925781 15.75 3.75 15.75 L 14.25 15.75 C 15.074219 15.75 15.75 15.074219 15.75 14.25 L 15.75 3.75 C 15.75 2.925781 15.074219 2.25 14.25 2.25 L 13.5 2.25 L 13.5 0.75 L 12 0.75 L 12 2.25 L 6 2.25 L 6 0.75 Z M 3.75 3.75 L 14.25 3.75 L 14.25 5.25 L 3.75 5.25 Z M 3.75 6.75 L 14.25 6.75 L 14.25 14.25 L 3.75 14.25 Z M 9.75 9.75 L 9.75 12.75 L 12.75 12.75 L 12.75 9.75 Z M 9.75 9.75 "/>
</g>
</svg>
