<?xml version="1.0" encoding="UTF-8"?>
<svg xmlns="http://www.w3.org/2000/svg" xmlns:xlink="http://www.w3.org/1999/xlink" width="24pt" height="24pt" viewBox="0 0 24 24" version="1.1">
<g id="surface5944">
<path style=" stroke:none;fill-rule:nonzero;fill:rgb(0%,0%,0%);fill-opacity:1;" d="M 9 3 C 7.90625 3 7 3.90625 7 5 L 7 6 L 4 6 C 2.90625 6 2 6.90625 2 8 L 2 19 C 2 20.09375 2.90625 21 4 21 L 20 21 C 21.09375 21 22 20.09375 22 19 L 22 8 C 22 6.90625 21.09375 6 20 6 L 17 6 L 17 5 C 17 3.90625 16.09375 3 15 3 Z M 9 5 L 15 5 L 15 6 C 15 7.09375 15.90625 8 17 8 L 20 8 L 20 19 L 4 19 L 4 8 L 7 8 C 8.09375 8 9 7.09375 9 6 Z M 12 9 C 9.800781 9 8 10.800781 8 13 C 8 15.199219 9.800781 17 12 17 C 14.199219 17 16 15.199219 16 13 C 16 10.800781 14.199219 9 12 9 Z M 18 9 C 17.449219 9 17 9.449219 17 10 C 17 10.550781 17.449219 11 18 11 C 18.550781 11 19 10.550781 19 10 C 19 9.449219 18.550781 9 18 9 Z M 12 11 C 13.117188 11 14 11.882812 14 13 C 14 14.117188 13.117188 15 12 15 C 10.882812 15 10 14.117188 10 13 C 10 11.882812 10.882812 11 12 11 Z M 12 11 "/>
</g>
</svg>
