<?xml version="1.0" encoding="UTF-8"?>
<svg xmlns="http://www.w3.org/2000/svg" xmlns:xlink="http://www.w3.org/1999/xlink" width="18pt" height="18pt" viewBox="0 0 18 18" version="1.1">
<g id="surface983">
<path style=" stroke:none;fill-rule:nonzero;fill:rgb(0%,0%,0%);fill-opacity:1;" d="M 13.769531 1.5 C 13.070312 1.5 12.371094 1.765625 11.835938 2.300781 C 11.785156 2.355469 10.734375 3.40625 9.847656 4.289062 L 9.15625 3.59375 L 8.09375 4.65625 L 8.789062 5.347656 C 8.789062 5.351562 8.789062 5.351562 8.789062 5.351562 L 8.832031 5.394531 C 8.320312 5.890625 5.300781 8.789062 4.578125 9.515625 C 3.945312 10.144531 3.578125 10.648438 3.359375 11.121094 C 3.144531 11.589844 3.105469 12.015625 3.082031 12.300781 C 3.058594 12.585938 3.050781 12.730469 2.9375 12.984375 C 2.824219 13.234375 2.578125 13.605469 2.027344 14.160156 L 1.503906 14.691406 L 3.304688 16.488281 L 3.832031 15.976562 C 4.878906 14.96875 5.078125 15.042969 5.671875 14.964844 C 5.96875 14.929688 6.386719 14.867188 6.855469 14.644531 C 7.328125 14.417969 7.839844 14.050781 8.480469 13.433594 L 8.480469 13.429688 L 8.484375 13.425781 C 9.21875 12.6875 12.261719 9.769531 12.746094 9.304688 L 13.34375 9.90625 L 14.40625 8.84375 L 13.710938 8.148438 L 15.699219 6.160156 C 16.765625 5.09375 16.765625 3.367188 15.699219 2.300781 C 15.164062 1.765625 14.464844 1.5 13.769531 1.5 Z M 13.769531 3 C 14.097656 3 14.40625 3.128906 14.636719 3.363281 C 14.871094 3.59375 15 3.902344 15 4.230469 C 15 4.558594 14.871094 4.867188 14.636719 5.101562 L 12.652344 7.089844 L 10.910156 5.351562 L 10.910156 5.347656 L 12.898438 3.363281 C 13.132812 3.128906 13.441406 3 13.769531 3 Z M 9.894531 6.457031 L 11.683594 8.246094 C 11.179688 8.730469 8.214844 11.574219 7.425781 12.363281 C 6.871094 12.898438 6.484375 13.160156 6.210938 13.289062 C 5.9375 13.417969 5.765625 13.441406 5.484375 13.476562 C 5.121094 13.523438 4.570312 13.726562 3.9375 14.089844 C 4.03125 13.9375 4.238281 13.742188 4.300781 13.601562 C 4.515625 13.128906 4.554688 12.707031 4.578125 12.421875 C 4.601562 12.136719 4.609375 11.996094 4.722656 11.746094 C 4.839844 11.496094 5.085938 11.125 5.636719 10.574219 C 6.296875 9.914062 9.398438 6.933594 9.894531 6.457031 Z M 9.894531 6.457031 "/>
</g>
</svg>
