<?xml version="1.0" encoding="UTF-8"?>
<svg xmlns="http://www.w3.org/2000/svg" xmlns:xlink="http://www.w3.org/1999/xlink" width="18pt" height="18pt" viewBox="0 0 18 18" version="1.1">
<g id="surface824">
<path style=" stroke:none;fill-rule:nonzero;fill:rgb(9.019608%,9.019608%,9.411765%);fill-opacity:1;" d="M 15.75 3.375 C 15.128906 3.375 14.625 3.878906 14.625 4.5 C 14.625 5.121094 15.128906 5.625 15.75 5.625 C 16.371094 5.625 16.875 5.121094 16.875 4.5 C 16.875 3.878906 16.371094 3.375 15.75 3.375 Z M 1.5 3.75 L 1.5 5.25 L 12.75 5.25 L 12.75 3.75 Z M 15.75 7.875 C 15.128906 7.875 14.625 8.378906 14.625 9 C 14.625 9.621094 15.128906 10.125 15.75 10.125 C 16.371094 10.125 16.875 9.621094 16.875 9 C 16.875 8.378906 16.371094 7.875 15.75 7.875 Z M 1.5 8.25 L 1.5 9.75 L 12.75 9.75 L 12.75 8.25 Z M 15.75 12.375 C 15.128906 12.375 14.625 12.878906 14.625 13.5 C 14.625 14.121094 15.128906 14.625 15.75 14.625 C 16.371094 14.625 16.875 14.121094 16.875 13.5 C 16.875 12.878906 16.371094 12.375 15.75 12.375 Z M 1.5 12.75 L 1.5 14.25 L 12.75 14.25 L 12.75 12.75 Z M 1.5 12.75 "/>
</g>
</svg>
