<?xml version="1.0" encoding="UTF-8"?>
<svg xmlns="http://www.w3.org/2000/svg" xmlns:xlink="http://www.w3.org/1999/xlink" width="18pt" height="18pt" viewBox="0 0 18 18" version="1.1">
<g id="surface7157">
<path style=" stroke:none;fill-rule:nonzero;fill:rgb(9.019608%,9.019608%,9.411765%);fill-opacity:1;" d="M 14.984375 2.242188 C 14.957031 2.242188 14.929688 2.246094 14.902344 2.25 L 11.25 2.25 C 10.980469 2.246094 10.726562 2.386719 10.589844 2.621094 C 10.457031 2.855469 10.457031 3.144531 10.589844 3.378906 C 10.726562 3.613281 10.980469 3.753906 11.25 3.75 L 13.1875 3.75 L 9.96875 6.96875 C 9.773438 7.15625 9.695312 7.4375 9.761719 7.699219 C 9.832031 7.960938 10.039062 8.167969 10.300781 8.238281 C 10.5625 8.304688 10.84375 8.226562 11.03125 8.03125 L 14.25 4.808594 L 14.25 6.75 C 14.246094 7.019531 14.386719 7.273438 14.621094 7.410156 C 14.855469 7.542969 15.144531 7.542969 15.378906 7.410156 C 15.613281 7.273438 15.753906 7.019531 15.75 6.75 L 15.75 3.09375 C 15.777344 2.875 15.710938 2.652344 15.5625 2.492188 C 15.417969 2.328125 15.207031 2.238281 14.984375 2.242188 Z M 7.484375 9.742188 C 7.289062 9.75 7.105469 9.828125 6.96875 9.96875 L 3.75 13.1875 L 3.75 11.25 C 3.753906 10.980469 3.613281 10.726562 3.378906 10.589844 C 3.144531 10.457031 2.855469 10.457031 2.621094 10.589844 C 2.386719 10.726562 2.246094 10.980469 2.25 11.25 L 2.25 14.90625 C 2.21875 15.140625 2.296875 15.375 2.464844 15.539062 C 2.632812 15.703125 2.863281 15.78125 3.097656 15.75 L 6.75 15.75 C 7.019531 15.753906 7.273438 15.613281 7.410156 15.378906 C 7.542969 15.144531 7.542969 14.855469 7.410156 14.621094 C 7.273438 14.386719 7.019531 14.246094 6.75 14.25 L 4.808594 14.25 L 8.03125 11.03125 C 8.253906 10.816406 8.320312 10.484375 8.199219 10.199219 C 8.078125 9.914062 7.792969 9.734375 7.484375 9.742188 Z M 7.484375 9.742188 "/>
</g>
</svg>
