<?xml version="1.0" encoding="UTF-8"?>
<svg xmlns="http://www.w3.org/2000/svg" xmlns:xlink="http://www.w3.org/1999/xlink" width="18pt" height="18pt" viewBox="0 0 18 18" version="1.1">
<g id="surface3218">
<path style=" stroke:none;fill-rule:nonzero;fill:rgb(9.019608%,9.019608%,9.411765%);fill-opacity:1;" d="M 4.5 1.5 C 3.679688 1.5 3 2.179688 3 3 L 3 15 C 3 15.820312 3.679688 16.5 4.5 16.5 L 13.5 16.5 C 14.320312 16.5 15 15.820312 15 15 L 15 6 L 10.5 1.5 Z M 4.5 3 L 9.75 3 L 9.75 6.75 L 13.5 6.75 L 13.5 15 L 4.5 15 Z M 6 9 L 6 10.5 L 7.5 10.5 L 7.5 9 Z M 8.25 9 L 8.25 10.5 L 12 10.5 L 12 9 Z M 6 12 L 6 13.5 L 9.75 13.5 L 9.75 12 Z M 10.5 12 L 10.5 13.5 L 12 13.5 L 12 12 Z M 10.5 12 "/>
</g>
</svg>
