<?xml version="1.0" encoding="UTF-8"?>
<svg xmlns="http://www.w3.org/2000/svg" xmlns:xlink="http://www.w3.org/1999/xlink" width="18pt" height="18pt" viewBox="0 0 18 18" version="1.1">
<g id="surface203">
<path style=" stroke:none;fill-rule:nonzero;fill:rgb(9.019608%,9.019608%,9.411765%);fill-opacity:1;" d="M 4.703125 1.5 C 2.941406 1.5 1.5 2.941406 1.5 4.703125 L 1.5 13.296875 C 1.5 15.058594 2.941406 16.5 4.703125 16.5 L 13.296875 16.5 C 15.058594 16.5 16.5 15.058594 16.5 13.296875 L 16.5 4.703125 C 16.5 2.941406 15.058594 1.5 13.296875 1.5 Z M 4.703125 3 L 13.296875 3 C 14.246094 3 15 3.753906 15 4.703125 L 15 13.296875 C 15 14.246094 14.246094 15 13.296875 15 L 4.703125 15 C 3.753906 15 3 14.246094 3 13.296875 L 3 4.703125 C 3 3.753906 3.753906 3 4.703125 3 Z M 12.738281 4.488281 C 12.703125 4.492188 12.667969 4.492188 12.632812 4.5 L 5.25 4.5 C 4.835938 4.5 4.5 4.835938 4.5 5.25 L 4.5 12.75 C 4.5 13.164062 4.835938 13.5 5.25 13.5 L 12.75 13.5 C 13.164062 13.5 13.5 13.164062 13.5 12.75 L 13.5 5.375 C 13.542969 5.132812 13.460938 4.882812 13.285156 4.710938 C 13.28125 4.710938 13.28125 4.710938 13.28125 4.710938 C 13.277344 4.707031 13.277344 4.707031 13.273438 4.703125 C 13.273438 4.703125 13.269531 4.699219 13.269531 4.699219 C 13.125 4.5625 12.933594 4.488281 12.738281 4.488281 Z M 6 6 L 12 6 L 12 12 L 6 12 Z M 7.5 7.5 L 7.5 10.5 L 10.5 10.5 L 10.5 7.5 Z M 7.5 7.5 "/>
</g>
</svg>
