<?xml version="1.0" encoding="UTF-8"?>
<svg xmlns="http://www.w3.org/2000/svg" xmlns:xlink="http://www.w3.org/1999/xlink" width="18pt" height="18pt" viewBox="0 0 18 18" version="1.1">
<g id="surface546">
<path style=" stroke:none;fill-rule:nonzero;fill:rgb(9.019608%,9.019608%,9.411765%);fill-opacity:1;" d="M 3 3 C 2.175781 3 1.5 3.675781 1.5 4.5 L 1.5 13.5 C 1.5 14.324219 2.175781 15 3 15 L 15 15 C 15.824219 15 16.5 14.324219 16.5 13.5 L 16.5 6 C 16.5 5.175781 15.824219 4.5 15 4.5 L 9 4.5 L 7.5 3 Z M 3 6 L 15 6 L 15 13.5 L 3 13.5 Z M 8.25 7.5 L 8.25 9.75 L 6 9.75 L 9 12.75 L 12 9.75 L 9.75 9.75 L 9.75 7.5 Z M 8.25 7.5 "/>
</g>
</svg>
