<svg width="21" height="20" viewBox="0 0 21 20" fill="none" xmlns="http://www.w3.org/2000/svg">
<path d="M18.671 8.36774H18V8.33287H10.5V11.6671H15.2098C14.522 13.6077 12.6763 15 10.5 15C7.7391 15 5.49998 12.7609 5.49998 10C5.49998 7.23912 7.7391 5 10.5 5C11.7751 5 12.9344 5.4813 13.8175 6.26674L16.1738 3.90904C14.6853 2.52232 12.6945 1.66713 10.5 1.66713C5.89758 1.66713 2.16711 5.3976 2.16711 10C2.16711 14.6024 5.89758 18.3329 10.5 18.3329C15.1024 18.3329 18.8329 14.6024 18.8329 10C18.8329 9.44057 18.7757 8.89648 18.671 8.36774Z" fill="#FFC107"/>
<path d="M3.12695 6.12165L5.86551 8.12918C6.60631 6.29464 8.40039 5 10.5 5C11.7751 5 12.9344 5.4813 13.8175 6.26674L16.1738 3.90904C14.6853 2.52232 12.6945 1.66713 10.5 1.66713C7.29967 1.66713 4.52344 3.47377 3.12695 6.12165Z" fill="#FF3D00"/>
<path d="M10.5 18.3329C12.6526 18.3329 14.6086 17.5098 16.0873 16.1705L13.5078 13.9872C12.6708 14.6219 11.6314 15 10.5 15C8.33205 15 6.49193 13.6175 5.79857 11.6895L3.08093 13.7835C4.46068 16.4816 7.26062 18.3329 10.5 18.3329Z" fill="#4CAF50"/>
<path d="M18.671 8.36775H18V8.33287H10.5V11.6671H15.2098C14.8792 12.5991 14.2807 13.4026 13.5064 13.9886C13.5064 13.9872 13.5078 13.9872 13.5078 13.9872L16.0873 16.1691C15.9046 16.3351 18.8329 14.1671 18.8329 10C18.8329 9.44057 18.7757 8.89649 18.671 8.36775Z" fill="#1976D2"/>
</svg>
