<?xml version="1.0" encoding="UTF-8"?>
<svg xmlns="http://www.w3.org/2000/svg" xmlns:xlink="http://www.w3.org/1999/xlink" width="18pt" height="18pt" viewBox="0 0 18 18" version="1.1">
<g id="surface1406">
<path style=" stroke:none;fill-rule:nonzero;fill:rgb(9.019608%,9.019608%,9.411765%);fill-opacity:1;" d="M 9 1.5 C 4.867188 1.5 1.5 4.867188 1.5 9 C 1.5 13.132812 4.867188 16.5 9 16.5 C 13.132812 16.5 16.5 13.132812 16.5 9 C 16.5 4.867188 13.132812 1.5 9 1.5 Z M 9 3 C 12.324219 3 15 5.675781 15 9 C 15 12.324219 12.324219 15 9 15 C 5.675781 15 3 12.324219 3 9 C 3 5.675781 5.675781 3 9 3 Z M 8.25 5.25 L 8.25 6.75 L 9.75 6.75 L 9.75 5.25 Z M 8.25 8.25 L 8.25 12.75 L 9.75 12.75 L 9.75 8.25 Z M 8.25 8.25 "/>
</g>
</svg>
