<?xml version="1.0" encoding="UTF-8"?>
<svg xmlns="http://www.w3.org/2000/svg" xmlns:xlink="http://www.w3.org/1999/xlink" width="18pt" height="18pt" viewBox="0 0 18 18" version="1.1">
<g id="surface529">
<path style=" stroke:none;fill-rule:nonzero;fill:rgb(9.019608%,9.019608%,9.411765%);fill-opacity:1;" d="M 9 0.75 C 6.507812 0.75 4.5 2.757812 4.5 5.25 L 4.5 7.289062 C 3.570312 8.347656 3 9.730469 3 11.25 C 3 14.5625 5.6875 17.25 9 17.25 C 12.3125 17.25 15 14.5625 15 11.25 C 15 9.730469 14.429688 8.347656 13.5 7.289062 L 13.5 5.25 C 13.5 2.757812 11.492188 0.75 9 0.75 Z M 9 2.25 C 10.707031 2.25 12 3.542969 12 5.25 L 12 6.058594 C 11.117188 5.546875 10.09375 5.25 9 5.25 C 7.90625 5.25 6.882812 5.546875 6 6.058594 L 6 5.25 C 6 3.542969 7.292969 2.25 9 2.25 Z M 9.03125 9 C 9.839844 9.015625 10.5 9.683594 10.5 10.5 C 10.5 11.050781 10.195312 11.53125 9.75 11.789062 L 9.75 13.5 C 9.75 13.914062 9.414062 14.25 9 14.25 C 8.585938 14.25 8.25 13.914062 8.25 13.5 L 8.25 11.789062 C 7.707031 11.472656 7.371094 10.828125 7.546875 10.125 C 7.679688 9.585938 8.132812 9.152344 8.675781 9.035156 C 8.796875 9.007812 8.914062 9 9.03125 9 Z M 9.03125 9 "/>
</g>
</svg>
