<?xml version="1.0" encoding="UTF-8"?>
<svg xmlns="http://www.w3.org/2000/svg" xmlns:xlink="http://www.w3.org/1999/xlink" width="18pt" height="18pt" viewBox="0 0 18 18" version="1.1">
<g id="surface6874">
<path style=" stroke:none;fill-rule:nonzero;fill:rgb(9.019608%,9.019608%,9.411765%);fill-opacity:1;" d="M 4.5 2.25 C 3.265625 2.25 2.25 3.265625 2.25 4.5 L 2.25 13.5 C 2.25 14.734375 3.265625 15.75 4.5 15.75 L 10.875 15.75 C 11.914062 15.75 12.84375 15.066406 13.101562 14.0625 C 13.203125 13.660156 12.964844 13.25 12.5625 13.148438 C 12.160156 13.046875 11.75 13.285156 11.648438 13.6875 C 11.574219 13.976562 11.230469 14.25 10.875 14.25 L 4.5 14.25 C 4.078125 14.25 3.75 13.921875 3.75 13.5 L 3.75 4.5 C 3.75 4.078125 4.078125 3.75 4.5 3.75 L 10.875 3.75 C 11.230469 3.75 11.574219 4.023438 11.648438 4.3125 C 11.75 4.714844 12.160156 4.953125 12.5625 4.851562 C 12.964844 4.75 13.203125 4.339844 13.101562 3.9375 C 12.84375 2.933594 11.914062 2.25 10.875 2.25 Z M 12.742188 5.992188 C 12.4375 5.992188 12.164062 6.179688 12.046875 6.460938 C 11.933594 6.742188 12 7.066406 12.21875 7.28125 L 13.1875 8.25 L 6.375 8.25 C 6.105469 8.246094 5.851562 8.386719 5.714844 8.621094 C 5.582031 8.855469 5.582031 9.144531 5.714844 9.378906 C 5.851562 9.613281 6.105469 9.753906 6.375 9.75 L 13.1875 9.75 L 12.21875 10.71875 C 12.023438 10.90625 11.945312 11.1875 12.011719 11.449219 C 12.082031 11.710938 12.289062 11.917969 12.550781 11.988281 C 12.8125 12.054688 13.09375 11.976562 13.28125 11.78125 L 15.53125 9.53125 C 15.824219 9.238281 15.824219 8.761719 15.53125 8.46875 L 13.28125 6.21875 C 13.140625 6.074219 12.945312 5.992188 12.742188 5.992188 Z M 12.742188 5.992188 "/>
</g>
</svg>
