<svg width="25" height="24" viewBox="0 0 25 24" fill="none" xmlns="http://www.w3.org/2000/svg">
<path d="M5.906 20.479C5.76242 20.6038 5.5862 20.6851 5.39803 20.7133C5.20987 20.7415 5.01756 20.7155 4.84369 20.6382C4.66982 20.5609 4.5216 20.4356 4.41644 20.2771C4.31128 20.1185 4.25354 19.9332 4.25 19.743V17.5C3.71957 17.5 3.21086 17.2893 2.83579 16.9142C2.46071 16.5391 2.25 16.0304 2.25 15.5V8.5C2.25 7.96957 2.46071 7.46086 2.83579 7.08579C3.21086 6.71071 3.71957 6.5 4.25 6.5H15.25C15.7804 6.5 16.2891 6.71071 16.6642 7.08579C17.0393 7.46086 17.25 7.96957 17.25 8.5V15.5C17.25 16.0304 17.0393 16.5391 16.6642 16.9142C16.2891 17.2893 15.7804 17.5 15.25 17.5H10.253L5.906 20.479ZM6.75 17.386C6.84112 17.3855 6.93061 17.3617 7.01 17.317L9.365 15.679C9.5326 15.5624 9.73186 15.5 9.936 15.5H14.25C14.5152 15.5 14.7696 15.3946 14.9571 15.2071C15.1446 15.0196 15.25 14.7652 15.25 14.5V9.5C15.25 9.23478 15.1446 8.98043 14.9571 8.79289C14.7696 8.60536 14.5152 8.5 14.25 8.5H5.25C4.98478 8.5 4.73043 8.60536 4.54289 8.79289C4.35536 8.98043 4.25 9.23478 4.25 9.5V14.5C4.25 15.04 4.679 15.482 5.25 15.5C5.66 15.516 5.957 15.583 6.094 15.726C6.222 15.86 6.229 16.086 6.25 16.516C6.253 16.579 6.253 16.693 6.25 16.886C6.25 17.0186 6.30268 17.1458 6.39645 17.2396C6.49021 17.3333 6.61739 17.386 6.75 17.386ZM18.25 12.516C18.2468 12.6393 18.2468 12.7627 18.25 12.886V12.516C18.27 12.086 18.278 11.86 18.406 11.726C18.543 11.583 18.84 11.516 19.25 11.5C19.821 11.482 20.25 11.04 20.25 10.5V5.5C20.25 5.23478 20.1446 4.98043 19.9571 4.79289C19.7696 4.60536 19.5152 4.5 19.25 4.5H10.25C9.98478 4.5 9.73043 4.60536 9.54289 4.79289C9.35536 4.98043 9.25 5.23478 9.25 5.5H7.25V4.5C7.25 3.96957 7.46071 3.46086 7.83579 3.08579C8.21086 2.71071 8.71957 2.5 9.25 2.5H20.25C20.7804 2.5 21.2891 2.71071 21.6642 3.08579C22.0393 3.46086 22.25 3.96957 22.25 4.5V11.5C22.25 12.0304 22.0393 12.5391 21.6642 12.9142C21.2891 13.2893 20.7804 13.5 20.25 13.5V15.743C20.2465 15.9332 20.1887 16.1185 20.0836 16.2771C19.9784 16.4356 19.8302 16.5609 19.6563 16.6382C19.4824 16.7155 19.2901 16.7415 19.102 16.7133C18.9138 16.6851 18.7376 16.6038 18.594 16.479L18.25 16.243V12.517V12.516Z" fill="#707070"/>
</svg>
