<?xml version="1.0" encoding="UTF-8"?>
<svg xmlns="http://www.w3.org/2000/svg" xmlns:xlink="http://www.w3.org/1999/xlink" width="18pt" height="18pt" viewBox="0 0 18 18" version="1.1">
<g id="surface1483">
<path style=" stroke:none;fill-rule:nonzero;fill:rgb(9.019608%,9.019608%,9.411765%);fill-opacity:1;" d="M 4.5 7.5 C 3.671875 7.5 3 8.171875 3 9 C 3 9.828125 3.671875 10.5 4.5 10.5 C 5.328125 10.5 6 9.828125 6 9 C 6 8.171875 5.328125 7.5 4.5 7.5 Z M 9 7.5 C 8.171875 7.5 7.5 8.171875 7.5 9 C 7.5 9.828125 8.171875 10.5 9 10.5 C 9.828125 10.5 10.5 9.828125 10.5 9 C 10.5 8.171875 9.828125 7.5 9 7.5 Z M 13.5 7.5 C 12.671875 7.5 12 8.171875 12 9 C 12 9.828125 12.671875 10.5 13.5 10.5 C 14.328125 10.5 15 9.828125 15 9 C 15 8.171875 14.328125 7.5 13.5 7.5 Z M 13.5 7.5 "/>
</g>
</svg>
