<?xml version="1.0" encoding="UTF-8"?>
<svg xmlns="http://www.w3.org/2000/svg" xmlns:xlink="http://www.w3.org/1999/xlink" width="18pt" height="18pt" viewBox="0 0 18 18" version="1.1">
<g id="surface226">
<path style=" stroke:none;fill-rule:nonzero;fill:rgb(9.019608%,9.019608%,9.411765%);fill-opacity:1;" d="M 9 1.5 C 4.863281 1.5 1.5 4.863281 1.5 9 C 1.5 13.136719 4.863281 16.5 9 16.5 C 11.445312 16.5 13.613281 15.316406 14.984375 13.5 L 12.957031 13.5 C 11.898438 14.429688 10.515625 15 9 15 C 5.691406 15 3 12.308594 3 9 C 3 5.691406 5.691406 3 9 3 C 10.515625 3 11.898438 3.570312 12.957031 4.5 L 14.984375 4.5 C 13.613281 2.683594 11.445312 1.5 9 1.5 Z M 14.25 6 L 14.25 8.25 L 9 8.25 L 9 9.75 L 14.25 9.75 L 14.25 12 L 17.25 9 Z M 14.25 6 "/>
</g>
</svg>
