<?xml version="1.0" encoding="UTF-8"?>
<svg xmlns="http://www.w3.org/2000/svg" xmlns:xlink="http://www.w3.org/1999/xlink" width="108pt" height="108pt" viewBox="0 0 108 108" version="1.1">
<g id="surface870">
<path style=" stroke:none;fill-rule:evenodd;fill:rgb(38.039216%,38.039216%,38.039216%);fill-opacity:1;" d="M 65.582031 71.929688 L 71.945312 65.566406 L 98.996094 92.617188 L 92.636719 98.980469 Z M 65.582031 71.929688 "/>
<path style=" stroke:none;fill-rule:evenodd;fill:rgb(38.039216%,38.039216%,38.039216%);fill-opacity:1;" d="M 44.929688 8.953125 C 25.046875 8.953125 8.929688 25.074219 8.929688 44.953125 C 8.929688 64.835938 25.046875 80.953125 44.929688 80.953125 C 64.8125 80.953125 80.929688 64.835938 80.929688 44.953125 C 80.929688 25.074219 64.8125 8.953125 44.929688 8.953125 Z M 44.929688 8.953125 "/>
<path style=" stroke:none;fill-rule:evenodd;fill:rgb(21.176471%,27.843137%,30.980392%);fill-opacity:1;" d="M 72.953125 79.472656 L 79.316406 73.109375 L 98.882812 92.675781 L 92.523438 99.039062 Z M 72.953125 79.472656 "/>
<path style=" stroke:none;fill-rule:evenodd;fill:rgb(37.254902%,70.196078%,97.647059%);fill-opacity:1;" d="M 44.929688 15.703125 C 28.777344 15.703125 15.679688 28.800781 15.679688 44.953125 C 15.679688 61.109375 28.777344 74.203125 44.929688 74.203125 C 61.085938 74.203125 74.179688 61.109375 74.179688 44.953125 C 74.179688 28.800781 61.085938 15.703125 44.929688 15.703125 Z M 44.929688 15.703125 "/>
<path style=" stroke:none;fill-rule:evenodd;fill:rgb(96.078431%,96.078431%,96.078431%);fill-opacity:1;" d="M 60.21875 56.894531 C 56.476562 52.273438 50.964844 49.5 45.015625 49.5 C 39.066406 49.5 33.558594 52.273438 29.8125 56.894531 C 28.925781 57.824219 29.148438 59.441406 30.027344 60.132812 C 30.914062 61.054688 32.453125 60.820312 33.117188 59.898438 C 36.199219 56.195312 40.335938 54.027344 44.96875 54.027344 C 49.601562 54.027344 53.828125 56.195312 56.910156 59.898438 C 57.359375 60.359375 58.710938 61.273438 60.003906 60.359375 C 61.042969 59.628906 60.882812 57.824219 60.21875 56.894531 Z M 60.21875 56.894531 "/>
<path style=" stroke:none;fill-rule:evenodd;fill:rgb(96.078431%,96.078431%,96.078431%);fill-opacity:1;" d="M 32.625 33.75 C 30.761719 33.75 29.25 35.261719 29.25 37.125 C 29.25 38.988281 30.761719 40.5 32.625 40.5 C 34.488281 40.5 36 38.988281 36 37.125 C 36 35.261719 34.488281 33.75 32.625 33.75 Z M 57.375 33.75 C 55.511719 33.75 54 35.261719 54 37.125 C 54 38.988281 55.511719 40.5 57.375 40.5 C 59.238281 40.5 60.75 38.988281 60.75 37.125 C 60.75 35.261719 59.238281 33.75 57.375 33.75 Z M 57.375 33.75 "/>
</g>
</svg>
