<svg width="24" height="24" viewBox="0 0 24 24" fill="none" xmlns="http://www.w3.org/2000/svg">
<path fill-rule="evenodd" clip-rule="evenodd" d="M11.0735 3.072V1C11.0735 0.448 11.5215 0 12.0735 0C12.6245 0 13.0735 0.448 13.0735 1V3.072C14.5595 3.286 15.9485 3.976 17.0225 5.05C18.3355 6.363 19.0735 8.144 19.0735 10V13.764L19.8825 15.382C20.2695 16.157 20.2285 17.077 19.7725 17.814C19.3175 18.551 18.5125 19 17.6465 19H13.0735C13.0735 19.552 12.6245 20 12.0735 20C11.5215 20 11.0735 19.552 11.0735 19H6.50049C5.63349 19 4.8285 18.551 4.3735 17.814C3.9175 17.077 3.87649 16.157 4.26449 15.382L5.07348 13.764V10C5.07348 8.144 5.8105 6.363 7.1235 5.05C8.1985 3.976 9.58649 3.286 11.0735 3.072V3.072ZM12.0735 5C10.7465 5 9.47551 5.527 8.53751 6.465C7.59951 7.402 7.07349 8.674 7.07349 10V14C7.07349 14.155 7.0365 14.308 6.9675 14.447C6.9675 14.447 6.52249 15.337 6.05249 16.276C5.97549 16.431 5.98349 16.616 6.07449 16.763C6.16549 16.91 6.32649 17 6.50049 17H17.6465C17.8195 17 17.9805 16.91 18.0715 16.763C18.1625 16.616 18.1705 16.431 18.0935 16.276C17.6235 15.337 17.1785 14.447 17.1785 14.447C17.1095 14.308 17.0735 14.155 17.0735 14V10C17.0735 8.674 16.5465 7.402 15.6085 6.465C14.6705 5.527 13.3995 5 12.0735 5V5Z" fill="black"/>
</svg>
