<?xml version="1.0" encoding="UTF-8"?>
<svg xmlns="http://www.w3.org/2000/svg" xmlns:xlink="http://www.w3.org/1999/xlink" width="18pt" height="18pt" viewBox="0 0 18 18" version="1.1">
<g id="surface5739">
<path style=" stroke:none;fill-rule:nonzero;fill:rgb(9.019608%,9.019608%,9.411765%);fill-opacity:1;" d="M 3.1875 3 C 2.257812 3 1.5 3.757812 1.5 4.6875 L 1.5 13.3125 C 1.5 13.46875 1.527344 13.617188 1.566406 13.761719 C 1.582031 13.703125 1.597656 13.648438 1.621094 13.589844 L 2.078125 12.375 L 2.480469 11.300781 L 3.5 8.585938 C 3.828125 7.710938 4.675781 7.125 5.609375 7.125 L 15.75 7.125 L 15.75 6.5625 C 15.75 5.632812 14.992188 4.875 14.0625 4.875 L 9.015625 4.875 L 7.339844 3.476562 C 6.96875 3.167969 6.5 3 6.019531 3 Z M 5.609375 8.25 C 5.136719 8.25 4.71875 8.539062 4.554688 8.980469 L 2.675781 13.988281 C 2.488281 14.476562 2.851562 15 3.375 15 L 14.265625 15 C 14.738281 15 15.15625 14.710938 15.320312 14.269531 L 17.199219 9.269531 C 17.386719 8.777344 17.023438 8.25 16.5 8.25 Z M 5.609375 8.25 "/>
</g>
</svg>
