<?xml version="1.0" encoding="UTF-8"?>
<svg xmlns="http://www.w3.org/2000/svg" xmlns:xlink="http://www.w3.org/1999/xlink" width="56pt" height="56pt" viewBox="0 0 56 56" version="1.1">
<g id="surface1655">
<path style=" stroke:none;fill-rule:nonzero;fill:rgb(0%,0%,0%);fill-opacity:1;" d="M 7 7 C 4.449219 7 2.332031 9.117188 2.332031 11.667969 L 2.332031 35 C 2.332031 37.550781 4.449219 39.667969 7 39.667969 L 37.332031 39.667969 C 39.882812 39.667969 42 37.550781 42 35 L 42 11.667969 C 42 9.117188 39.882812 7 37.332031 7 Z M 7 11.667969 L 37.332031 11.667969 L 37.332031 35 L 7 35 Z M 46.667969 16.332031 L 46.667969 44.332031 L 11.667969 44.332031 L 11.667969 49 L 46.667969 49 C 49.21875 49 51.332031 46.882812 51.332031 44.332031 L 51.332031 16.332031 Z M 26.964844 19.441406 L 20.445312 27.960938 L 15.695312 22.242188 L 9.332031 30.332031 L 35 30.332031 Z M 26.964844 19.441406 "/>
</g>
</svg>
