<?xml version="1.0" encoding="UTF-8"?>
<svg xmlns="http://www.w3.org/2000/svg" xmlns:xlink="http://www.w3.org/1999/xlink" width="24pt" height="24pt" viewBox="0 0 24 24" version="1.1">
<g id="surface5950">
<path style=" stroke:none;fill-rule:nonzero;fill:rgb(0%,0%,0%);fill-opacity:1;" d="M 4 4 C 2.90625 4 2 4.90625 2 6 L 2 18 C 2 19.09375 2.90625 20 4 20 L 20 20 C 21.09375 20 22 19.09375 22 18 L 22 6 C 22 4.90625 21.09375 4 20 4 Z M 4 6 L 20 6 L 20 18 L 4 18 Z M 10 8 C 9.449219 8 9 8.449219 9 9 C 9 9.550781 9.449219 10 10 10 C 10.550781 10 11 9.550781 11 9 C 11 8.449219 10.550781 8 10 8 Z M 14.5 11 L 11 15 L 8.5 12.5 L 5.777344 16 L 18.25 16 Z M 14.5 11 "/>
</g>
</svg>
