<?xml version="1.0" encoding="UTF-8"?>
<svg xmlns="http://www.w3.org/2000/svg" xmlns:xlink="http://www.w3.org/1999/xlink" width="18pt" height="18pt" viewBox="0 0 18 18" version="1.1">
<g id="surface297">
<path style=" stroke:none;fill-rule:nonzero;fill:rgb(9.019608%,9.019608%,9.411765%);fill-opacity:1;" d="M 9 1.5 C 4.863281 1.5 1.5 4.863281 1.5 9 C 1.5 13.136719 4.863281 16.5 9 16.5 C 13.136719 16.5 16.5 13.136719 16.5 9 L 15 9 C 15 12.308594 12.308594 15 9 15 C 5.691406 15 3 12.308594 3 9 C 3 5.691406 5.691406 3 9 3 C 10.65625 3 12.152344 3.675781 13.238281 4.761719 L 11.25 6.75 L 16.5 6.75 L 16.5 1.5 L 14.296875 3.703125 C 12.9375 2.34375 11.066406 1.5 9 1.5 Z M 9 1.5 "/>
</g>
</svg>
