<?xml version="1.0" encoding="UTF-8"?>
<svg xmlns="http://www.w3.org/2000/svg" xmlns:xlink="http://www.w3.org/1999/xlink" width="18pt" height="18pt" viewBox="0 0 18 18" version="1.1">
<g id="surface409">
<path style=" stroke:none;fill-rule:nonzero;fill:rgb(0%,0%,0%);fill-opacity:1;" d="M 3 2.25 C 2.175781 2.25 1.507812 2.925781 1.507812 3.75 L 1.5 12.75 C 1.5 13.578125 2.171875 14.25 3 14.25 L 4.5 14.25 L 4.5 17.25 L 7.5 14.25 L 15 14.25 C 15.824219 14.25 16.5 13.574219 16.5 12.75 L 16.5 3.75 C 16.5 2.925781 15.824219 2.25 15 2.25 Z M 3 3.75 L 15 3.75 L 15 12.75 L 3 12.75 Z M 7.0625 5.25 L 6 6.3125 L 7.941406 8.25 L 6 10.191406 L 7.0625 11.25 L 9 9.308594 L 10.941406 11.25 L 12 10.191406 L 10.058594 8.25 L 12 6.3125 L 10.941406 5.25 L 9 7.191406 Z M 7.0625 5.25 "/>
</g>
</svg>
