<?xml version="1.0" encoding="UTF-8"?>
<svg xmlns="http://www.w3.org/2000/svg" xmlns:xlink="http://www.w3.org/1999/xlink" width="24pt" height="24pt" viewBox="0 0 24 24" version="1.1">
<g id="surface7288">
<path style=" stroke:none;fill-rule:nonzero;fill:rgb(0%,0%,0%);fill-opacity:1;" d="M 2 2 L 4.9375 4.9375 C 3.125 6.75 2 9.242188 2 12 C 2 17.515625 6.484375 22 12 22 C 17.515625 22 22 17.515625 22 12 C 22 6.484375 17.515625 2 12 2 L 12 4 C 16.410156 4 20 7.589844 20 12 C 20 16.410156 16.410156 20 12 20 C 7.589844 20 4 16.410156 4 12 C 4 9.792969 4.902344 7.796875 6.351562 6.351562 L 9 9 L 9 2 Z M 2 2 "/>
</g>
</svg>
