<?xml version="1.0" encoding="UTF-8"?>
<svg xmlns="http://www.w3.org/2000/svg" xmlns:xlink="http://www.w3.org/1999/xlink" width="18pt" height="18pt" viewBox="0 0 18 18" version="1.1">
<g id="surface176">
<path style=" stroke:none;fill-rule:nonzero;fill:rgb(9.019608%,9.019608%,9.411765%);fill-opacity:1;" d="M 4.125 1.5 C 2.675781 1.5 1.5 2.675781 1.5 4.125 C 1.5 5.03125 1.960938 5.832031 2.660156 6.304688 C 1.753906 6.6875 1.050781 7.421875 0.824219 8.371094 C 0.757812 8.632812 0.835938 8.910156 1.03125 9.097656 C 1.226562 9.28125 1.507812 9.351562 1.765625 9.273438 C 2.027344 9.195312 2.222656 8.984375 2.28125 8.71875 C 2.433594 8.085938 3.160156 7.5 4.125 7.5 C 5.089844 7.5 5.816406 8.085938 5.96875 8.71875 C 6.027344 8.984375 6.222656 9.195312 6.484375 9.273438 C 6.742188 9.351562 7.023438 9.28125 7.21875 9.097656 C 7.414062 8.910156 7.492188 8.632812 7.425781 8.371094 C 7.199219 7.421875 6.496094 6.6875 5.589844 6.304688 C 6.289062 5.832031 6.75 5.03125 6.75 4.125 C 6.75 2.675781 5.574219 1.5 4.125 1.5 Z M 9.425781 1.515625 C 9.027344 1.523438 8.703125 1.851562 8.699219 2.253906 C 8.691406 2.652344 9 2.988281 9.402344 3.011719 C 11.90625 3.179688 13.984375 4.875 14.71875 7.171875 C 14.84375 7.566406 15.265625 7.785156 15.660156 7.660156 C 16.054688 7.535156 16.273438 7.113281 16.148438 6.71875 C 15.230469 3.84375 12.625 1.722656 9.503906 1.515625 C 9.476562 1.515625 9.453125 1.515625 9.425781 1.515625 Z M 13.875 9 C 12.425781 9 11.25 10.175781 11.25 11.625 C 11.25 12.53125 11.710938 13.332031 12.410156 13.804688 C 11.503906 14.1875 10.800781 14.921875 10.574219 15.871094 C 10.507812 16.132812 10.585938 16.410156 10.78125 16.597656 C 10.976562 16.78125 11.257812 16.851562 11.515625 16.773438 C 11.777344 16.695312 11.972656 16.484375 12.03125 16.21875 C 12.183594 15.585938 12.910156 15 13.875 15 C 14.839844 15 15.566406 15.585938 15.71875 16.21875 C 15.777344 16.484375 15.972656 16.695312 16.234375 16.773438 C 16.492188 16.851562 16.773438 16.78125 16.96875 16.597656 C 17.164062 16.410156 17.242188 16.132812 17.175781 15.871094 C 16.949219 14.921875 16.246094 14.1875 15.339844 13.804688 C 16.039062 13.332031 16.5 12.53125 16.5 11.625 C 16.5 10.175781 15.324219 9 13.875 9 Z M 2.714844 10.6875 C 2.460938 10.683594 2.226562 10.808594 2.085938 11.015625 C 1.941406 11.222656 1.914062 11.484375 2.007812 11.71875 C 3.046875 14.390625 5.574219 16.316406 8.566406 16.488281 C 8.839844 16.511719 9.101562 16.382812 9.253906 16.15625 C 9.40625 15.929688 9.421875 15.636719 9.296875 15.394531 C 9.171875 15.152344 8.925781 14.996094 8.652344 14.988281 C 6.253906 14.851562 4.238281 13.308594 3.40625 11.175781 C 3.296875 10.886719 3.023438 10.691406 2.714844 10.6875 Z M 2.714844 10.6875 "/>
</g>
</svg>
