<svg width="18" height="18" viewBox="0 0 18 18" fill="none" xmlns="http://www.w3.org/2000/svg">
<path d="M17.1292 16.148L12.3896 11.4084C13.3077 10.2744 13.8604 8.83341 13.8604 7.26398C13.8604 3.62648 10.9007 0.666748 7.26322 0.666748C3.62572 0.666748 0.666016 3.62645 0.666016 7.26395C0.666016 10.9014 3.62575 13.8612 7.26325 13.8612C8.83268 13.8612 10.2737 13.3084 11.4077 12.3903L16.1473 17.1299C16.2827 17.2653 16.4604 17.3334 16.6382 17.3334C16.816 17.3334 16.9938 17.2653 17.1292 17.1299C17.4007 16.8584 17.4007 16.4195 17.1292 16.148ZM7.26325 12.4723C4.39102 12.4723 2.05492 10.1362 2.05492 7.26395C2.05492 4.39172 4.39102 2.05562 7.26325 2.05562C10.1355 2.05562 12.4716 4.39172 12.4716 7.26395C12.4716 10.1362 10.1354 12.4723 7.26325 12.4723Z" fill="black" stroke="black" stroke-width="0.3"/>
</svg>
