<?xml version="1.0" encoding="UTF-8"?>
<svg xmlns="http://www.w3.org/2000/svg" xmlns:xlink="http://www.w3.org/1999/xlink" width="56pt" height="56pt" viewBox="0 0 56 56" version="1.1">
<g id="surface126">
<path style=" stroke:none;fill-rule:nonzero;fill:rgb(0%,0%,0%);fill-opacity:1;" d="M 42 4.667969 C 38.160156 4.667969 35 7.828125 35 11.667969 C 35 12.113281 35.050781 12.546875 35.132812 12.96875 L 18.484375 22.679688 C 17.261719 21.648438 15.707031 21 14 21 C 10.160156 21 7 24.160156 7 28 C 7 31.839844 10.160156 35 14 35 C 15.707031 35 17.261719 34.351562 18.484375 33.320312 L 35.132812 43.023438 C 35.050781 43.449219 35 43.886719 35 44.332031 C 35 48.171875 38.160156 51.332031 42 51.332031 C 45.839844 51.332031 49 48.171875 49 44.332031 C 49 40.496094 45.839844 37.332031 42 37.332031 C 40.289062 37.332031 38.738281 37.984375 37.515625 39.019531 L 20.867188 29.304688 C 20.949219 28.878906 21 28.445312 21 28 C 21 27.554688 20.949219 27.121094 20.867188 26.695312 L 37.515625 16.984375 C 38.738281 18.019531 40.292969 18.667969 42 18.667969 C 45.839844 18.667969 49 15.503906 49 11.667969 C 49 7.828125 45.839844 4.667969 42 4.667969 Z M 42 9.332031 C 43.316406 9.332031 44.332031 10.351562 44.332031 11.667969 C 44.332031 12.984375 43.316406 14 42 14 C 40.683594 14 39.667969 12.984375 39.667969 11.667969 C 39.667969 10.351562 40.683594 9.332031 42 9.332031 Z M 14 25.667969 C 15.316406 25.667969 16.332031 26.683594 16.332031 28 C 16.332031 29.316406 15.316406 30.332031 14 30.332031 C 12.683594 30.332031 11.667969 29.316406 11.667969 28 C 11.667969 26.683594 12.683594 25.667969 14 25.667969 Z M 42 42 C 43.316406 42 44.332031 43.015625 44.332031 44.332031 C 44.332031 45.648438 43.316406 46.667969 42 46.667969 C 40.683594 46.667969 39.667969 45.648438 39.667969 44.332031 C 39.667969 43.015625 40.683594 42 42 42 Z M 42 42 "/>
</g>
</svg>
