<?xml version="1.0" encoding="UTF-8"?>
<svg xmlns="http://www.w3.org/2000/svg" xmlns:xlink="http://www.w3.org/1999/xlink" width="18pt" height="18pt" viewBox="0 0 18 18" version="1.1">
<g id="surface1077">
<path style=" stroke:none;fill-rule:nonzero;fill:rgb(0%,0%,0%);fill-opacity:1;" d="M 9 1.5 C 4.867188 1.5 1.5 4.867188 1.5 9 C 1.5 13.132812 4.867188 16.5 9 16.5 C 13.132812 16.5 16.5 13.132812 16.5 9 C 16.5 4.867188 13.132812 1.5 9 1.5 Z M 9 3 C 12.324219 3 15 5.675781 15 9 C 15 10.390625 14.527344 11.664062 13.738281 12.679688 L 5.320312 4.261719 C 6.335938 3.472656 7.609375 3 9 3 Z M 4.261719 5.320312 L 12.679688 13.738281 C 11.664062 14.527344 10.390625 15 9 15 C 5.675781 15 3 12.324219 3 9 C 3 7.609375 3.472656 6.335938 4.261719 5.320312 Z M 4.261719 5.320312 "/>
</g>
</svg>
