<?xml version="1.0" encoding="UTF-8"?>
<svg xmlns="http://www.w3.org/2000/svg" xmlns:xlink="http://www.w3.org/1999/xlink" width="42pt" height="42pt" viewBox="0 0 42 42" version="1.1">
<g id="surface250">
<path style=" stroke:none;fill-rule:nonzero;fill:rgb(0%,0%,0%);fill-opacity:1;" d="M 21 8.75 C 18.101562 8.75 15.75 11.101562 15.75 14 C 15.75 16.898438 18.101562 19.25 21 19.25 C 23.898438 19.25 26.25 16.898438 26.25 14 C 26.25 11.101562 23.898438 8.75 21 8.75 Z M 8.75 12.25 C 6.816406 12.25 5.25 13.816406 5.25 15.75 C 5.25 17.683594 6.816406 19.25 8.75 19.25 C 10.683594 19.25 12.25 17.683594 12.25 15.75 C 12.25 13.816406 10.683594 12.25 8.75 12.25 Z M 33.25 12.25 C 31.316406 12.25 29.75 13.816406 29.75 15.75 C 29.75 17.683594 31.316406 19.25 33.25 19.25 C 35.183594 19.25 36.75 17.683594 36.75 15.75 C 36.75 13.816406 35.183594 12.25 33.25 12.25 Z M 21 22.75 C 14.820312 22.75 10.5 25.066406 10.5 28.378906 L 10.5 31.5 C 10.5 32.464844 11.285156 33.25 12.25 33.25 L 29.75 33.25 C 30.714844 33.25 31.5 32.464844 31.5 31.5 L 31.5 28.378906 C 31.5 25.066406 27.179688 22.75 21 22.75 Z M 8.015625 22.769531 C 4.527344 22.960938 1.75 24.488281 1.75 26.628906 L 1.75 28 C 1.75 28.964844 2.535156 29.75 3.5 29.75 L 7 29.75 L 7 28.378906 C 7 26.183594 7.921875 24.285156 9.554688 22.792969 C 9.546875 22.777344 9.550781 22.789062 9.546875 22.773438 C 9.023438 22.746094 8.511719 22.742188 8.015625 22.769531 Z M 33.984375 22.769531 C 33.488281 22.742188 32.976562 22.746094 32.453125 22.773438 C 32.449219 22.789062 32.453125 22.777344 32.445312 22.792969 C 34.078125 24.285156 35 26.183594 35 28.378906 L 35 29.75 L 38.5 29.75 C 39.464844 29.75 40.25 28.964844 40.25 28 L 40.25 26.628906 C 40.25 24.488281 37.472656 22.960938 33.984375 22.769531 Z M 33.984375 22.769531 "/>
</g>
</svg>
