<?xml version="1.0" encoding="UTF-8"?>
<svg xmlns="http://www.w3.org/2000/svg" xmlns:xlink="http://www.w3.org/1999/xlink" width="18pt" height="18pt" viewBox="0 0 18 18" version="1.1">
<g id="surface218">
<path style=" stroke:none;fill-rule:nonzero;fill:rgb(9.019608%,9.019608%,9.411765%);fill-opacity:1;" d="M 9 2.25 C 7.34375 2.25 6 3.59375 6 5.25 C 6 6.90625 7.34375 8.25 9 8.25 C 10.65625 8.25 12 6.90625 12 5.25 C 12 3.59375 10.65625 2.25 9 2.25 Z M 9 3.75 C 9.828125 3.75 10.5 4.421875 10.5 5.25 C 10.5 6.078125 9.828125 6.75 9 6.75 C 8.171875 6.75 7.5 6.078125 7.5 5.25 C 7.5 4.421875 8.171875 3.75 9 3.75 Z M 13.5 9 C 12.140625 9 10.917969 9.613281 10.09375 10.574219 C 9.703125 10.527344 9.328125 10.5 9 10.5 C 6.644531 10.5 2.25 11.660156 2.25 13.875 L 2.25 15.75 L 9.613281 15.75 C 10.394531 17.089844 11.84375 18 13.5 18 C 15.976562 18 18 15.976562 18 13.5 C 18 11.023438 15.976562 9 13.5 9 Z M 12.75 11.25 L 14.25 11.25 L 14.25 12.75 L 15.75 12.75 L 15.75 14.25 L 14.25 14.25 L 14.25 15.75 L 12.75 15.75 L 12.75 14.25 L 11.25 14.25 L 11.25 12.75 L 12.75 12.75 Z M 9 12 C 9.085938 12 9.171875 12.011719 9.257812 12.015625 C 9.09375 12.480469 9 12.980469 9 13.5 C 9 13.757812 9.027344 14.003906 9.070312 14.25 L 3.75 14.25 L 3.75 13.875 C 3.75 13.222656 6.53125 12 9 12 Z M 9 12 "/>
</g>
</svg>
