<?xml version="1.0" encoding="UTF-8"?>
<svg xmlns="http://www.w3.org/2000/svg" xmlns:xlink="http://www.w3.org/1999/xlink" width="18pt" height="18pt" viewBox="0 0 18 18" version="1.1">
<g id="surface165">
<path style=" stroke:none;fill-rule:nonzero;fill:rgb(9.019608%,9.019608%,9.411765%);fill-opacity:1;" d="M 4.5 2.25 C 3.671875 2.25 3 2.921875 3 3.75 C 3 4.578125 3.671875 5.25 4.5 5.25 C 5.328125 5.25 6 4.578125 6 3.75 C 6 2.921875 5.328125 2.25 4.5 2.25 Z M 13.5 2.25 C 12.671875 2.25 12 2.921875 12 3.75 C 12 4.578125 12.671875 5.25 13.5 5.25 C 14.328125 5.25 15 4.578125 15 3.75 C 15 2.921875 14.328125 2.25 13.5 2.25 Z M 9 5.25 C 8.171875 5.25 7.5 5.921875 7.5 6.75 C 7.5 7.578125 8.171875 8.25 9 8.25 C 9.828125 8.25 10.5 7.578125 10.5 6.75 C 10.5 5.921875 9.828125 5.25 9 5.25 Z M 4.5 8.25 C 3.671875 8.25 3 8.921875 3 9.75 C 3 10.578125 3.671875 11.25 4.5 11.25 C 5.328125 11.25 6 10.578125 6 9.75 C 6 8.921875 5.328125 8.25 4.5 8.25 Z M 13.5 8.25 C 12.671875 8.25 12 8.921875 12 9.75 C 12 10.578125 12.671875 11.25 13.5 11.25 C 14.328125 11.25 15 10.578125 15 9.75 C 15 8.921875 14.328125 8.25 13.5 8.25 Z M 4.5 12.75 C 3.5 12.75 1.5 13.289062 1.5 14.289062 L 1.5 15 C 1.5 15.414062 1.835938 15.75 2.25 15.75 L 6.75 15.75 C 7.164062 15.75 7.5 15.414062 7.5 15 L 7.5 14.289062 C 7.5 13.289062 5.5 12.75 4.5 12.75 Z M 13.5 12.75 C 12.5 12.75 10.5 13.289062 10.5 14.289062 L 10.5 15 C 10.5 15.414062 10.835938 15.75 11.25 15.75 L 15.75 15.75 C 16.164062 15.75 16.5 15.414062 16.5 15 L 16.5 14.289062 C 16.5 13.289062 14.5 12.75 13.5 12.75 Z M 13.5 12.75 "/>
</g>
</svg>
