<?xml version="1.0" encoding="UTF-8"?>
<svg xmlns="http://www.w3.org/2000/svg" xmlns:xlink="http://www.w3.org/1999/xlink" width="18pt" height="18pt" viewBox="0 0 18 18" version="1.1">
<g id="surface783">
<path style=" stroke:none;fill-rule:nonzero;fill:rgb(9.019608%,9.019608%,9.411765%);fill-opacity:1;" d="M 7.15625 0.144531 C 5.472656 0.175781 4.398438 0.855469 3.9375 1.914062 C 3.496094 2.917969 3.597656 4.1875 3.914062 5.5 C 3.742188 5.703125 3.605469 5.972656 3.65625 6.378906 C 3.710938 6.820312 3.832031 7.136719 4.003906 7.359375 C 4.101562 7.476562 4.226562 7.488281 4.34375 7.546875 C 4.40625 7.925781 4.511719 8.300781 4.667969 8.617188 C 4.757812 8.800781 4.863281 8.964844 4.960938 9.101562 C 5.007812 9.160156 5.070312 9.195312 5.117188 9.246094 C 5.121094 9.691406 5.121094 10.0625 5.085938 10.53125 C 4.96875 10.8125 4.695312 11.039062 4.253906 11.261719 C 3.796875 11.488281 3.199219 11.699219 2.597656 11.957031 C 1.996094 12.21875 1.378906 12.53125 0.890625 13.027344 C 0.398438 13.523438 0.0546875 14.203125 0 15.097656 L -0.0234375 15.480469 L 9 15.480469 L 8.765625 14.761719 L 0.808594 14.761719 C 0.910156 14.25 1.101562 13.839844 1.40625 13.535156 C 1.789062 13.144531 2.3125 12.855469 2.878906 12.609375 C 3.445312 12.367188 4.042969 12.175781 4.566406 11.914062 C 5.09375 11.652344 5.578125 11.308594 5.78125 10.753906 L 5.804688 10.664062 C 5.859375 10.0625 5.839844 9.632812 5.839844 9.113281 L 5.839844 8.898438 L 5.648438 8.796875 C 5.679688 8.8125 5.601562 8.765625 5.535156 8.671875 C 5.46875 8.582031 5.382812 8.453125 5.308594 8.300781 C 5.160156 8.003906 5.039062 7.621094 5.007812 7.3125 L 4.972656 7.019531 L 4.667969 6.996094 C 4.664062 6.996094 4.632812 7 4.566406 6.917969 C 4.503906 6.835938 4.417969 6.652344 4.375 6.300781 C 4.339844 6 4.492188 5.894531 4.476562 5.90625 L 4.714844 5.761719 L 4.644531 5.5 C 4.308594 4.195312 4.25 3.011719 4.601562 2.203125 C 4.953125 1.402344 5.671875 0.898438 7.167969 0.867188 C 7.171875 0.867188 7.171875 0.867188 7.175781 0.867188 C 7.902344 0.867188 8.371094 1.082031 8.503906 1.316406 L 8.59375 1.460938 L 8.765625 1.484375 C 9.265625 1.554688 9.550781 1.757812 9.753906 2.035156 C 9.957031 2.316406 10.070312 2.707031 10.101562 3.140625 C 10.171875 4.003906 9.921875 5.007812 9.765625 5.480469 L 9.675781 5.761719 L 9.921875 5.90625 C 9.90625 5.894531 10.058594 6 10.023438 6.300781 C 9.980469 6.652344 9.898438 6.835938 9.832031 6.917969 C 9.769531 7 9.734375 6.996094 9.730469 6.996094 L 9.425781 7.019531 L 9.394531 7.3125 C 9.359375 7.625 9.234375 8.003906 9.089844 8.300781 C 9.015625 8.453125 8.941406 8.582031 8.875 8.671875 C 8.808594 8.765625 8.742188 8.816406 8.773438 8.796875 L 8.582031 8.898438 L 8.582031 9.113281 C 8.582031 9.632812 8.5625 10.0625 8.617188 10.664062 L 8.617188 10.710938 L 8.640625 10.753906 C 8.753906 11.066406 8.957031 11.378906 9.292969 11.578125 L 9.664062 10.957031 C 9.511719 10.867188 9.410156 10.710938 9.335938 10.53125 C 9.300781 10.0625 9.300781 9.691406 9.304688 9.246094 C 9.351562 9.195312 9.417969 9.160156 9.460938 9.101562 C 9.558594 8.964844 9.652344 8.796875 9.742188 8.617188 C 9.894531 8.300781 10.007812 7.925781 10.070312 7.546875 C 10.179688 7.488281 10.300781 7.476562 10.394531 7.359375 C 10.566406 7.136719 10.691406 6.820312 10.742188 6.378906 C 10.792969 5.984375 10.660156 5.726562 10.496094 5.523438 C 10.671875 4.953125 10.898438 4.03125 10.824219 3.082031 C 10.78125 2.566406 10.648438 2.050781 10.339844 1.621094 C 10.054688 1.226562 9.59375 0.9375 9.011719 0.820312 C 8.632812 0.332031 7.953125 0.144531 7.167969 0.144531 Z M 13.679688 9.359375 C 11.296875 9.359375 9.359375 11.296875 9.359375 13.679688 C 9.359375 16.0625 11.296875 18 13.679688 18 C 16.0625 18 18 16.0625 18 13.679688 C 18 11.296875 16.0625 9.359375 13.679688 9.359375 Z M 13.679688 10.078125 C 15.671875 10.078125 17.28125 11.6875 17.28125 13.679688 C 17.28125 15.671875 15.671875 17.28125 13.679688 17.28125 C 11.6875 17.28125 10.078125 15.671875 10.078125 13.679688 C 10.078125 11.6875 11.6875 10.078125 13.679688 10.078125 Z M 11.519531 13.320312 L 11.519531 14.039062 L 15.839844 14.039062 L 15.839844 13.320312 Z M 11.519531 13.320312 "/>
</g>
</svg>
