<svg width="20" height="20" viewBox="0 0 20 20" fill="none" xmlns="http://www.w3.org/2000/svg">
<g clip-path="url(#clip0_121_1112)">
<path d="M10 4.99996C13.1583 4.99996 15.975 6.77496 17.35 9.58329C16.8583 10.6 16.1667 11.475 15.3417 12.1833L16.5167 13.3583C17.675 12.3333 18.5917 11.05 19.1667 9.58329C17.725 5.92496 14.1667 3.33329 10 3.33329C8.94168 3.33329 7.92501 3.49996 6.96668 3.80829L8.34168 5.18329C8.88334 5.07496 9.43334 4.99996 10 4.99996ZM9.10834 5.94996L10.8333 7.67496C11.3083 7.88329 11.6917 8.26663 11.9 8.74163L13.625 10.4666C13.6917 10.1833 13.7417 9.88329 13.7417 9.57496C13.75 7.50829 12.0667 5.83329 10 5.83329C9.69168 5.83329 9.40001 5.87496 9.10834 5.94996ZM1.67501 3.22496L3.90834 5.45829C2.55001 6.52496 1.47501 7.94163 0.833344 9.58329C2.27501 13.2416 5.83334 15.8333 10 15.8333C11.2667 15.8333 12.4833 15.5916 13.6 15.15L16.45 18L17.625 16.825L2.85001 2.04163L1.67501 3.22496ZM7.92501 9.47496L10.1 11.65C10.0667 11.6583 10.0333 11.6666 10 11.6666C8.85001 11.6666 7.91668 10.7333 7.91668 9.58329C7.91668 9.54163 7.92501 9.51663 7.92501 9.47496ZM5.09168 6.64163L6.55001 8.09996C6.35834 8.55829 6.25001 9.05829 6.25001 9.58329C6.25001 11.65 7.93334 13.3333 10 13.3333C10.525 13.3333 11.025 13.225 11.475 13.0333L12.2917 13.85C11.5583 14.05 10.7917 14.1666 10 14.1666C6.84168 14.1666 4.02501 12.3916 2.65001 9.58329C3.23334 8.39163 4.08334 7.40829 5.09168 6.64163Z" fill="#B8B8B8"/>
</g>
<defs>
<clipPath id="clip0_121_1112">
<rect width="20" height="20" fill="white"/>
</clipPath>
</defs>
</svg>
